<svg width="1200" height="132" viewBox="0 0 1200 132" fill="none" xmlns="http://www.w3.org/2000/svg">
<g opacity="0.8">
<path d="M199.261 -7C172.782 52.589 228.115 133.822 293.261 131C356.599 128.257 404.504 50.9356 378.761 -7C308.661 -7 269.36 -7 199.261 -7Z" fill="#E13FEF"/>
<path d="M2.76054 -7C-19.3421 56.6363 38.981 134.4 106.261 131C171.166 127.72 220.583 54.3904 199.261 -7C122.523 -7 79.4986 -7 2.76054 -7Z" fill="#E13FEF"/>
<path d="M378.761 -7C352.368 50.4174 400.121 128.405 463.261 131C528.085 133.664 582.858 51.9495 555.761 -7C486.638 -7 447.883 -7 378.761 -7Z" fill="#E13FEF"/>
<path d="M555.761 -7C530.246 44.7961 572.142 117.265 629.761 121C689.748 124.888 741.824 46.9254 715.261 -7C652.972 -7 618.049 -7 555.761 -7Z" fill="#E13FEF"/>
<path d="M715.261 -7C688.897 43.1386 738.802 118.62 795.261 114C849 109.602 886.855 40.7241 861.761 -7C804.549 -7 772.472 -7 715.261 -7Z" fill="#E13FEF"/>
<path d="M861.761 -7C843.377 44.7165 879.091 105.156 933.261 114C994.008 123.918 1054.88 50.9967 1034.26 -7C966.895 -7 929.126 -7 861.761 -7Z" fill="#E13FEF"/>
<path d="M1034.26 -7C1014.13 43.0222 1047.74 104.177 1100.76 114C1160.79 125.123 1222.55 49.6413 1199.76 -7C1135.13 -7 1098.89 -7 1034.26 -7Z" fill="#E13FEF"/>
</g>
</svg>
