<svg width="569" height="278" viewBox="0 0 569 278" fill="none" xmlns="http://www.w3.org/2000/svg">
<path opacity="0.3" d="M171.323 53.3992C146.075 44.3624 119.259 38.968 93.7839 42.9792C82.0973 44.8235 69.8853 49.056 60.8896 59.4668C48.99 73.2249 42.671 96.0382 39.4121 115.781C34.7474 144.016 41.0664 170.896 57.3325 190.869C70.8864 207.468 88.6435 217.168 106.564 223.854C126.65 231.337 147.382 235.501 168.27 236.247C187.838 236.948 206.042 234.956 221.264 217.196C231.545 205.209 238.816 189.191 242.884 172.012C248.464 148.489 246.945 124.191 236.494 103.434C226.554 83.7648 210.7 69.9606 193.752 62.4176C186.467 59.1994 178.97 56.1287 171.323 53.3992Z" fill="#E6E6E6"/>
<path d="M231.105 63.4411H156.775V236.57H231.105V63.4411Z" fill="#C9C9C9"/>
<path d="M224.445 83.1838H162.924V205.033H224.445V83.1838Z" fill="white"/>
<path opacity="0.56" d="M194.164 230.069C198.179 230.069 201.434 225.841 201.434 220.626C201.434 215.411 198.179 211.184 194.164 211.184C190.148 211.184 186.893 215.411 186.893 220.626C186.893 225.841 190.148 230.069 194.164 230.069Z" fill="white"/>
<path opacity="0.12" d="M208.491 70.2095H187.653V74.1562H208.491V70.2095Z" fill="black"/>
<path d="M180.106 77.024C181.98 77.024 183.5 75.0506 183.5 72.6163C183.5 70.1819 181.98 68.2085 180.106 68.2085C178.231 68.2085 176.712 70.1819 176.712 72.6163C176.712 75.0506 178.231 77.024 180.106 77.024Z" fill="white"/>
<path d="M180.801 162.745L175.242 170.278C174.798 170.879 174.252 171.337 173.649 171.618C173.045 171.899 172.399 171.994 171.763 171.897C171.126 171.8 170.515 171.512 169.978 171.057C169.441 170.602 168.993 169.991 168.668 169.273L161.49 153.367C161.29 152.927 161.142 152.452 161.049 151.956C160.737 150.25 159.871 146.091 158.919 145.621C157.712 145.04 157.414 148.885 157.414 148.885C157.414 148.885 153.942 145.879 152.444 148.885C151.55 150.683 153.743 153.062 155.675 154.704C157.288 156.068 158.489 158.113 159.076 160.495C160.914 168.065 165.416 184.129 170.712 185.447C177.656 187.19 189.882 173.607 189.882 173.607L180.801 162.745Z" fill="#F4A28C"/>
<path d="M194.284 137.792C194.284 137.792 172.168 142.449 174.88 162.293C176.847 176.669 182.619 175.645 182.321 186.6L182.193 193.571L205.723 192.649C205.723 192.649 204.224 178.91 207.143 169.126C210.061 159.342 218.176 135.182 194.284 137.792Z" fill="#68E1FD"/>
<path d="M199.404 120.641L200.426 137.967L193.035 138.013L195.257 125.389L199.404 120.641Z" fill="#F4A28C"/>
<path opacity="0.09" d="M200.93 141.49C200.93 141.49 189.435 145.962 193.056 158.816C196.677 171.671 202.457 179.822 196.642 183.926C190.827 188.029 182.214 193.571 182.214 193.571H202.094L206.823 186.867L210.913 167.503L200.93 141.49Z" fill="black"/>
<path opacity="0.31" d="M194.682 128.128C195.617 127.923 196.485 127.368 197.181 126.533C197.181 126.533 196.876 129.687 194 132.536L194.682 128.128Z" fill="#CE8172"/>
<path d="M191.984 119.184C191.984 119.184 191.537 124.458 192.154 127.99C192.278 128.679 192.606 129.276 193.068 129.651C193.53 130.026 194.087 130.148 194.618 129.991C195.478 129.801 196.277 129.293 196.919 128.528C197.562 127.762 198.02 126.771 198.239 125.675L199.546 121.065C199.734 120.11 199.689 119.102 199.417 118.182C199.145 117.261 198.659 116.474 198.026 115.928C195.768 113.725 192.133 115.947 191.984 119.184Z" fill="#F4A28C"/>
<path d="M182.193 193.571L179.303 204.923H209.194L205.723 192.649L182.193 193.571Z" fill="#24285B"/>
<path d="M196.237 123.859C196.237 123.859 196.308 121.821 197.487 122.014C198.665 122.208 198.58 125.159 196.968 125.38L196.237 123.859Z" fill="#F4A28C"/>
<path d="M191.835 122.522L190.656 124.532C190.589 124.646 190.545 124.78 190.529 124.921C190.512 125.063 190.524 125.208 190.562 125.342C190.6 125.477 190.664 125.596 190.748 125.69C190.831 125.784 190.932 125.849 191.04 125.878L192.595 126.302L191.835 122.522Z" fill="#F4A28C"/>
<path d="M197.486 122.014C197.486 122.014 192.573 137.691 196.507 140.632C200.44 143.574 207.448 142.974 208.371 136.307C209.294 129.64 204.267 128.008 204.224 118.649C204.182 109.289 190.379 109.981 190.23 115.338C190.081 120.696 197.486 122.014 197.486 122.014Z" fill="#FFD200"/>
<path d="M200.93 141.49C201.571 140.802 202.317 140.299 203.118 140.014C203.92 139.728 204.759 139.666 205.58 139.833C206.401 139.999 207.186 140.39 207.882 140.979C208.579 141.568 209.171 142.343 209.62 143.251C213.319 150.562 215.118 159.219 214.754 167.955C213.944 186.499 217.019 197.739 202.073 193.571C191.175 190.528 177.933 167.3 177.933 167.3C177.933 167.3 173.503 163.492 176.925 157.876C180.347 152.26 182.967 165.585 182.967 165.585C182.967 165.585 200.88 184.949 204.501 179.343C207.647 174.391 191.615 151.707 200.93 141.49Z" fill="#F4A28C"/>
<path d="M127.225 41.4208H52.895V214.55H127.225V41.4208Z" fill="#C9C9C9"/>
<path d="M120.565 61.1635H59.0436V183.013H120.565V61.1635Z" fill="white"/>
<path opacity="0.56" d="M90.2836 208.049C94.2989 208.049 97.554 203.821 97.554 198.606C97.554 193.391 94.2989 189.164 90.2836 189.164C86.2683 189.164 83.0132 193.391 83.0132 198.606C83.0132 203.821 86.2683 208.049 90.2836 208.049Z" fill="white"/>
<path opacity="0.12" d="M104.611 48.1892H83.7729V52.1359H104.611V48.1892Z" fill="black"/>
<path d="M76.2256 55.0037C78.0999 55.0037 79.6194 53.0303 79.6194 50.596C79.6194 48.1616 78.0999 46.1882 76.2256 46.1882C74.3512 46.1882 72.8318 48.1616 72.8318 50.596C72.8318 53.0303 74.3512 55.0037 76.2256 55.0037Z" fill="white"/>
<path d="M106.365 137.331C106.365 137.331 105.911 158.392 113.465 162.56C122.851 167.761 133.281 156.105 137.776 150.148C139.074 148.408 140.783 147.281 142.632 146.949C144.261 146.719 145.773 145.737 146.892 144.182C149.455 140.494 143.874 137.119 141.61 139.867C141.716 139.632 141.781 139.37 141.8 139.099C141.818 138.828 141.791 138.555 141.719 138.299C141.647 138.043 141.532 137.812 141.383 137.62C141.234 137.429 141.055 137.283 140.857 137.193C140.147 136.676 139.522 137.986 139.103 139.452C138.808 140.512 138.337 141.474 137.724 142.271C137.11 143.067 136.369 143.679 135.553 144.062L125.301 148.784C124.615 149.133 123.871 149.239 123.143 149.091C122.416 148.943 121.731 148.547 121.161 147.943C120.59 147.338 120.153 146.548 119.895 145.652C119.637 144.756 119.567 143.788 119.692 142.845L120.565 136.178L106.365 137.331Z" fill="#F4A28C"/>
<path d="M109.439 104.983C109.439 104.983 123.256 112.636 121.14 140.669L107.65 139.166L109.439 104.983Z" fill="#68E1FD"/>
<path opacity="0.36" d="M109.439 104.983C109.439 104.983 123.256 112.636 121.14 140.669L107.65 139.166L109.439 104.983Z" fill="white"/>
<path d="M95.0548 80.9707L91.2208 98.5095L98.8178 100.566L98.5551 86.9738L95.0548 80.9707Z" fill="#F4A28C"/>
<path opacity="0.31" d="M98.69 89.943C97.7603 89.4831 96.9554 88.6782 96.3754 87.6284C96.3754 87.6284 96.1837 90.9573 98.6829 94.6643L98.69 89.943Z" fill="#CE8172"/>
<path d="M91.2208 98.5095L95.7293 99.7268C95.7293 99.7268 116.319 102.613 117.178 117.727C118.037 132.84 106.365 171.44 106.365 171.44H75.1251C75.1251 171.44 50.1189 94.5167 91.2208 98.5095Z" fill="#68E1FD"/>
<path d="M102.95 81.4779C102.95 81.4779 102.567 87.0106 101.36 90.487C101.245 90.8226 101.081 91.1252 100.875 91.3773C100.67 91.6294 100.428 91.826 100.164 91.9556C99.8998 92.0852 99.6183 92.1452 99.3359 92.1321C99.0536 92.119 98.7761 92.0331 98.5196 91.8795C97.6556 91.4585 96.9048 90.7197 96.3589 89.7536C95.8129 88.7874 95.4954 87.6356 95.4453 86.4389L94.8347 81.3672C94.7965 80.3339 95.0053 79.3105 95.4323 78.4373C95.8594 77.564 96.4839 76.8836 97.2203 76.4892C99.9041 74.8386 103.284 78.1398 102.95 81.4779Z" fill="#F4A28C"/>
<path opacity="0.09" d="M81.9979 105.555C81.9979 105.555 92.6479 113.614 90.1984 131.844C87.7489 150.075 83.5954 156.354 92.4065 153.8C101.218 151.246 104.839 145.501 104.839 145.501C104.839 145.501 111.179 152.214 104.839 157.313C98.4983 162.413 89.9286 162.394 88.5086 171.422H75.1393C75.1393 171.422 74.053 167.466 72.6188 162.487C71.1846 157.507 81.9979 105.555 81.9979 105.555Z" fill="black"/>
<path d="M101.842 81.4687C100.53 81.2327 99.2435 80.7995 98.0084 80.1777C98.2832 81.0118 98.3624 81.9327 98.2361 82.825C98.1098 83.7173 97.7836 84.5414 97.2984 85.1941C96.8434 85.842 96.2291 86.2643 95.5608 86.3888C94.8925 86.5133 94.2116 86.3321 93.6348 85.8764L94.6714 78.8591C94.7912 77.8507 95.1183 76.9031 95.6181 76.116C96.1179 75.3289 96.772 74.7315 97.5114 74.3868C98.1539 74.0857 98.8109 73.8393 99.4781 73.6491C101.147 73.1972 103.248 75.0784 104.839 74.0364C104.998 73.9324 105.175 73.8841 105.353 73.8959C105.531 73.9078 105.704 73.9795 105.854 74.1041C106.005 74.2286 106.127 74.4018 106.211 74.6065C106.294 74.8112 106.335 75.0405 106.33 75.272C106.28 77.4667 105.527 80.8047 103.135 81.4226C102.708 81.5253 102.272 81.5408 101.842 81.4687Z" fill="#FFD200"/>
<path d="M97.7954 85.1387C97.7954 85.1387 98.051 83.0178 96.8085 82.898C95.566 82.7781 95.1826 85.8395 96.8085 86.5035L97.7954 85.1387Z" fill="#F4A28C"/>
<path opacity="0.08" d="M126.146 178.07C139.999 178.07 151.23 163.484 151.23 145.492C151.23 127.499 139.999 112.913 126.146 112.913C112.292 112.913 101.061 127.499 101.061 145.492C101.061 163.484 112.292 178.07 126.146 178.07Z" fill="black"/>
<path d="M126.146 178.07C139.999 178.07 151.23 163.484 151.23 145.492C151.23 127.499 139.999 112.913 126.146 112.913C112.292 112.913 101.061 127.499 101.061 145.492C101.061 163.484 112.292 178.07 126.146 178.07Z" fill="#FFD200"/>
<g opacity="0.08">
<path opacity="0.08" d="M126.557 171.237C140.411 171.237 151.642 156.652 151.642 138.659C151.642 120.666 140.411 106.08 126.557 106.08C112.704 106.08 101.473 120.666 101.473 138.659C101.473 156.652 112.704 171.237 126.557 171.237Z" fill="black"/>
</g>
<path opacity="0.08" d="M126.146 178.07C139.999 178.07 151.23 163.484 151.23 145.492C151.23 127.499 139.999 112.913 126.146 112.913C112.292 112.913 101.061 127.499 101.061 145.492C101.061 163.484 112.292 178.07 126.146 178.07Z" fill="black"/>
<path d="M126.557 171.237C140.411 171.237 151.642 156.652 151.642 138.659C151.642 120.666 140.411 106.08 126.557 106.08C112.704 106.08 101.473 120.666 101.473 138.659C101.473 156.652 112.704 171.237 126.557 171.237Z" fill="#FFD200"/>
<path d="M125.123 124.172C125.833 123.988 126.082 124.246 126.224 125.15L126.522 127.077C129.362 126.856 131.265 128.239 132.912 131.07C133.423 131.918 133.352 132.462 132.607 133.154L131.279 134.389C130.654 134.998 130.292 134.887 129.753 134.048C129.289 133.153 128.617 132.476 127.834 132.115C127.052 131.755 126.201 131.731 125.407 132.047C122.837 132.72 121.815 134.011 122.163 136.252C122.39 137.7 123.583 138.336 124.662 138.336C125.411 138.352 126.161 138.306 126.905 138.198C128.29 137.935 129.696 137.935 131.08 138.198C131.773 138.295 132.445 138.56 133.061 138.982C133.711 139.574 134.263 140.328 134.686 141.2C135.109 142.073 135.394 143.046 135.525 144.062C136.185 148.341 134.431 151.827 130.654 153.597L130.967 155.635C131.109 156.557 130.967 156.908 130.257 157.092L128.595 157.525C127.885 157.71 127.608 157.461 127.466 156.603L127.154 154.602C124.051 154.888 121.715 153.413 120.168 150.148C120.076 149.99 120.013 149.806 119.984 149.611C119.955 149.415 119.96 149.214 120 149.022C120.039 148.83 120.112 148.653 120.213 148.503C120.313 148.353 120.438 148.234 120.579 148.157L121.95 147.059C122.66 146.506 123.022 146.654 123.512 147.548C124.52 149.577 126.046 150.314 128.105 149.78C130.889 149.042 132.096 147.539 131.741 145.224C131.679 144.682 131.481 144.182 131.176 143.802C130.871 143.423 130.478 143.187 130.058 143.131C129.027 142.934 127.979 142.934 126.948 143.131C125.546 143.394 124.12 143.369 122.724 143.057C122.037 142.935 121.374 142.654 120.764 142.227C120.115 141.673 119.561 140.95 119.137 140.104C118.713 139.259 118.428 138.308 118.3 137.313C117.64 133.071 119.252 129.705 123.022 128.017L122.724 126.099C122.582 125.177 122.773 124.818 123.434 124.633L125.123 124.172Z" fill="white"/>
<path d="M65.5188 137.783C65.5188 137.783 63.758 161.205 72.6188 162.505C79.2999 163.492 90.0138 158.595 96.56 156.17C99.4 155.119 100.77 154.63 102.95 152.048C105.556 148.95 109.177 146.746 106.365 143.804C101.395 138.576 97.8451 147.493 97.8451 147.493C93.6691 149.064 89.3654 149.992 85.0225 150.259C84.2076 150.288 83.3988 150.069 82.6604 149.62C81.922 149.172 81.2744 148.505 80.7691 147.674C80.2638 146.844 79.9147 145.871 79.7496 144.834C79.5846 143.797 79.608 142.725 79.8182 141.702L81.4725 133.633C81.4725 133.633 69.7291 119.405 65.5188 137.783Z" fill="#F4A28C"/>
<path d="M102.538 84.9543L103.426 87.3611C103.47 87.497 103.489 87.6448 103.48 87.7921C103.472 87.9394 103.436 88.0819 103.376 88.2075C103.316 88.3332 103.234 88.4383 103.137 88.514C103.039 88.5898 102.929 88.6339 102.815 88.6428H101.147L102.538 84.9543Z" fill="#F4A28C"/>
<path d="M74.7204 103.72C70.1409 108.33 63.1971 118.474 63.3604 137.598L82.2748 139.166C82.2748 139.166 87.7418 118.142 82.0263 105.555C81.6684 104.768 81.1861 104.089 80.6112 103.563C80.0363 103.037 79.3819 102.675 78.6913 102.501C78.0008 102.328 77.2897 102.347 76.6052 102.557C75.9206 102.767 75.2782 103.163 74.7204 103.72Z" fill="#68E1FD"/>
<path opacity="0.36" d="M74.7204 103.72C70.1409 108.33 63.1971 118.474 63.3604 137.598L82.2748 139.166C82.2748 139.166 87.7418 118.142 82.0263 105.555C81.6684 104.768 81.1861 104.089 80.6112 103.563C80.0363 103.037 79.3819 102.675 78.6913 102.501C78.0008 102.328 77.2897 102.347 76.6052 102.557C75.9206 102.767 75.2782 103.163 74.7204 103.72Z" fill="white"/>
<path d="M75.1393 171.44V183.4H109.219L106.365 171.44H75.1393Z" fill="#24285B"/>
<path d="M149.583 134.998C148.952 135.939 148.579 137.127 148.525 138.373C148.46 139.043 148.557 139.723 148.802 140.319C148.976 140.656 149.2 140.945 149.462 141.167C150.492 142.089 152.075 142.237 152.899 141.001C153.333 140.245 153.551 139.316 153.516 138.373C153.516 137.266 153.616 135.081 152.934 134.233C152.018 133.089 150.3 134.011 149.583 134.998Z" fill="#F4A28C"/>
<path opacity="0.3" d="M427.882 192.023C487.836 192.023 536.439 187.749 536.439 182.476C536.439 177.203 487.836 172.929 427.882 172.929C367.928 172.929 319.326 177.203 319.326 182.476C319.326 187.749 367.928 192.023 427.882 192.023Z" fill="#E6E6E6"/>
<path d="M517.037 176.798H414.729V95.4555C414.729 93.5758 415.424 91.773 416.66 90.4439C417.896 89.1147 419.572 88.368 421.32 88.368H517.037C518.239 88.368 519.43 88.6227 520.54 89.1176C521.65 89.6125 522.659 90.3379 523.509 91.2522C524.358 92.1666 525.032 93.2521 525.492 94.4466C525.951 95.6412 526.187 96.9213 526.186 98.214V166.944C526.188 168.238 525.952 169.519 525.494 170.714C525.035 171.909 524.361 172.996 523.511 173.911C522.662 174.826 521.653 175.552 520.542 176.048C519.431 176.543 518.24 176.798 517.037 176.798Z" fill="#68E1FD"/>
<path opacity="0.08" d="M517.037 176.798H414.729V95.4555C414.729 93.5758 415.424 91.773 416.66 90.4439C417.896 89.1147 419.572 88.368 421.32 88.368H517.037C518.239 88.368 519.43 88.6227 520.54 89.1176C521.65 89.6125 522.659 90.3379 523.509 91.2522C524.358 92.1666 525.032 93.2521 525.492 94.4466C525.951 95.6412 526.187 96.9213 526.186 98.214V166.944C526.188 168.238 525.952 169.519 525.494 170.714C525.035 171.909 524.361 172.996 523.511 173.911C522.662 174.826 521.653 175.552 520.542 176.048C519.431 176.543 518.24 176.798 517.037 176.798Z" fill="black"/>
<path opacity="0.08" d="M447.412 111.768C458.182 111.768 466.913 102.379 466.913 90.7969C466.913 79.2146 458.182 69.8253 447.412 69.8253C436.642 69.8253 427.911 79.2146 427.911 90.7969C427.911 102.379 436.642 111.768 447.412 111.768Z" fill="black"/>
<path d="M447.412 111.768C458.182 111.768 466.913 102.379 466.913 90.7969C466.913 79.2146 458.182 69.8253 447.412 69.8253C436.642 69.8253 427.911 79.2146 427.911 90.7969C427.911 102.379 436.642 111.768 447.412 111.768Z" fill="#FFD200"/>
<g opacity="0.08">
<path opacity="0.08" d="M448.36 105.455C459.13 105.455 467.861 96.0655 467.861 84.4832C467.861 72.9009 459.13 63.5116 448.36 63.5116C437.589 63.5116 428.858 72.9009 428.858 84.4832C428.858 96.0655 437.589 105.455 448.36 105.455Z" fill="black"/>
</g>
<path opacity="0.08" d="M447.412 111.768C458.182 111.768 466.913 102.379 466.913 90.7969C466.913 79.2146 458.182 69.8253 447.412 69.8253C436.642 69.8253 427.911 79.2146 427.911 90.7969C427.911 102.379 436.642 111.768 447.412 111.768Z" fill="black"/>
<path d="M448.36 105.455C459.13 105.455 467.861 96.0655 467.861 84.4832C467.861 72.9009 459.13 63.5116 448.36 63.5116C437.589 63.5116 428.858 72.9009 428.858 84.4832C428.858 96.0655 437.589 105.455 448.36 105.455Z" fill="#FFD200"/>
<path d="M448.994 75.0969C449.542 75.0969 449.706 75.3038 449.706 75.8631V77.1887C450.674 77.3004 451.596 77.6931 452.373 78.3247C453.15 78.9563 453.753 79.8032 454.116 80.7747C454.401 81.3953 454.28 81.7324 453.639 82.0389L452.463 82.6059C451.908 82.8894 451.644 82.7668 451.331 82.1462C451.087 81.5048 450.657 80.9651 450.105 80.6076C449.553 80.25 448.908 80.0936 448.267 80.1617C446.222 80.1617 445.289 80.8053 445.289 82.2765C445.337 82.7249 445.527 83.1418 445.829 83.456C446.13 83.7703 446.523 83.9627 446.942 84.0005C447.512 84.1375 448.091 84.2322 448.673 84.284C449.762 84.3395 450.837 84.5667 451.865 84.9583C452.383 85.1338 452.867 85.4119 453.29 85.7781C453.715 86.2598 454.047 86.8276 454.266 87.4485C454.485 88.0694 454.587 88.731 454.565 89.3947C454.565 92.2067 452.813 94.1147 449.72 94.605V95.9459C449.72 96.5359 449.549 96.7122 449.008 96.7122H447.683C447.134 96.7122 446.97 96.5053 446.97 95.9459V94.628C445.896 94.5489 444.867 94.1298 444.014 93.4236C443.161 92.7173 442.521 91.7554 442.175 90.659C442.124 90.5436 442.098 90.4173 442.099 90.2896C442.1 90.1619 442.128 90.0361 442.181 89.9217C442.234 89.8073 442.31 89.7073 442.404 89.6293C442.498 89.5512 442.607 89.4972 442.724 89.4713L443.899 89.0039C444.498 88.7741 444.761 88.9273 445.025 89.5709C445.552 91.0217 446.633 91.7445 448.267 91.7393C450.476 91.7393 451.573 90.9731 451.573 89.4407C451.593 89.0889 451.502 88.7401 451.316 88.4499C451.13 88.1596 450.86 87.9447 450.547 87.8393C449.78 87.552 448.978 87.3868 448.167 87.3489C447.065 87.2745 445.981 87.016 444.954 86.5827C444.435 86.3941 443.952 86.1059 443.529 85.7321C443.099 85.277 442.761 84.7307 442.538 84.1278C442.315 83.525 442.211 82.8789 442.232 82.2305C442.232 79.4414 443.864 77.5872 446.934 77.1428V75.9015C446.934 75.3038 447.127 75.1352 447.647 75.1352L448.994 75.0969Z" fill="white"/>
<path opacity="0.08" d="M492.884 122.411C503.654 122.411 512.385 113.022 512.385 101.44C512.385 89.8575 503.654 80.4682 492.884 80.4682C482.113 80.4682 473.382 89.8575 473.382 101.44C473.382 113.022 482.113 122.411 492.884 122.411Z" fill="black"/>
<path d="M492.884 122.411C503.654 122.411 512.385 113.022 512.385 101.44C512.385 89.8575 503.654 80.4682 492.884 80.4682C482.113 80.4682 473.382 89.8575 473.382 101.44C473.382 113.022 482.113 122.411 492.884 122.411Z" fill="#FFD200"/>
<g opacity="0.08">
<path opacity="0.08" d="M490.482 116.557C501.253 116.557 509.984 107.168 509.984 95.5858C509.984 84.0035 501.253 74.6142 490.482 74.6142C479.712 74.6142 470.981 84.0035 470.981 95.5858C470.981 107.168 479.712 116.557 490.482 116.557Z" fill="black"/>
</g>
<path opacity="0.08" d="M492.884 122.411C503.654 122.411 512.385 113.022 512.385 101.44C512.385 89.8575 503.654 80.4682 492.884 80.4682C482.113 80.4682 473.382 89.8575 473.382 101.44C473.382 113.022 482.113 122.411 492.884 122.411Z" fill="black"/>
<path d="M490.482 116.557C501.253 116.557 509.984 107.168 509.984 95.5858C509.984 84.0035 501.253 74.6142 490.482 74.6142C479.712 74.6142 470.981 84.0035 470.981 95.5858C470.981 107.168 479.712 116.557 490.482 116.557Z" fill="#FFD200"/>
<path d="M486.265 87.3489C486.728 87.0271 486.977 87.096 487.269 87.5941L487.91 88.6591C488.778 88.1836 489.751 87.9716 490.722 88.0458C491.694 88.1201 492.628 88.4778 493.425 89.0805C493.981 89.433 494.052 89.7855 493.667 90.4214L492.955 91.5861C492.634 92.1455 492.349 92.1914 491.772 91.8543C491.242 91.4669 490.612 91.2707 489.971 91.2942C489.331 91.3176 488.714 91.5593 488.21 91.9845C486.5 93.1799 486.072 94.2832 486.785 95.5015C487.053 95.8496 487.425 96.0876 487.838 96.1755C488.25 96.2634 488.679 96.1959 489.05 95.9842C489.596 95.7629 490.129 95.507 490.646 95.218C491.585 94.6239 492.601 94.1848 493.66 93.9154C494.182 93.7608 494.726 93.714 495.263 93.7775C495.864 93.9322 496.43 94.2155 496.927 94.6104C497.424 95.0053 497.842 95.5038 498.156 96.0762C499.581 98.4362 499.075 101.064 496.731 103.286L497.408 104.405C497.707 104.903 497.672 105.171 497.209 105.501L496.104 106.267C495.641 106.589 495.392 106.528 495.078 106.029L494.408 104.926C493.466 105.488 492.391 105.738 491.318 105.645C490.244 105.552 489.22 105.121 488.374 104.405C488.272 104.339 488.185 104.248 488.121 104.14C488.057 104.032 488.017 103.909 488.003 103.782C487.99 103.655 488.005 103.526 488.045 103.405C488.086 103.285 488.152 103.176 488.238 103.087L488.986 102.007C489.371 101.463 489.699 101.432 490.219 101.823C491.395 102.727 492.663 102.696 494.031 101.746C495.883 100.451 496.432 99.1794 495.662 97.9151C495.503 97.6045 495.252 97.3601 494.948 97.2212C494.645 97.0823 494.307 97.0569 493.988 97.1489C493.201 97.3545 492.447 97.6851 491.751 98.1297C490.79 98.7141 489.752 99.1379 488.673 99.3863C488.15 99.5187 487.61 99.5524 487.077 99.4859C486.488 99.3507 485.932 99.0872 485.441 98.7116C484.951 98.336 484.538 97.8563 484.227 97.3022C482.802 95.0035 483.244 92.4519 485.602 90.2835L484.961 89.2261C484.661 88.7281 484.718 88.4599 485.174 88.1151L486.265 87.3489Z" fill="white"/>
<path d="M414.729 95.4555H509.3C511.845 95.4555 514.286 96.5429 516.086 98.4785C517.886 100.414 518.897 103.039 518.897 105.777V173.557C518.897 176.294 517.886 178.919 516.086 180.855C514.286 182.791 511.845 183.878 509.3 183.878H414.729V95.4555Z" fill="#68E1FD"/>
<path d="M492.706 130.434H527.027V148.9H492.706C491.578 148.9 490.462 148.661 489.42 148.197C488.378 147.733 487.432 147.053 486.635 146.195C485.837 145.338 485.205 144.32 484.773 143.2C484.342 142.08 484.12 140.879 484.12 139.667C484.12 137.218 485.024 134.87 486.635 133.138C488.245 131.406 490.428 130.434 492.706 130.434Z" fill="#24285B"/>
<path d="M494.558 144.364C496.97 144.364 498.926 142.261 498.926 139.667C498.926 137.073 496.97 134.97 494.558 134.97C492.146 134.97 490.19 137.073 490.19 139.667C490.19 142.261 492.146 144.364 494.558 144.364Z" fill="#FFD200"/>
<path opacity="0.58" d="M400.971 176.369C400.971 176.369 395.463 174.752 394.266 169.235C394.266 169.235 402.816 167.381 403.044 176.898L400.971 176.369Z" fill="#68E1FD"/>
<path opacity="0.73" d="M401.648 175.779C401.648 175.779 397.801 169.235 401.185 163.121C401.185 163.121 407.676 167.55 404.79 175.794L401.648 175.779Z" fill="#68E1FD"/>
<path d="M402.638 175.787C402.638 175.787 404.676 168.891 410.818 167.565C410.818 167.565 411.972 172.055 406.842 175.802L402.638 175.787Z" fill="#68E1FD"/>
<path d="M398.641 175.633L399.76 183.847L406.792 183.878L407.832 175.672L398.641 175.633Z" fill="#24285B"/>
<path d="M382.076 176.859C382.076 176.859 384.213 179.012 386.529 177.993C388.844 176.974 390.54 178.989 388.83 180.69C387.12 182.391 380.665 182.476 380.665 182.476L378.763 178.001L382.076 176.859Z" fill="#68E1FD"/>
<path d="M346.066 175.856C346.066 175.856 345.019 178.798 346.778 180.721C348.538 182.644 347.434 185.089 345.353 184.031C343.273 182.974 340.744 176.568 340.744 176.568L343.85 172.967L346.066 175.856Z" fill="#68E1FD"/>
<path d="M340.33 120.549C340.33 120.549 338.072 130.15 341.997 134.878C345.923 139.605 351.972 161.987 341.997 173.189L345.93 177.166C345.93 177.166 363.159 167.718 358.242 133.644L370.54 120.557L340.33 120.549Z" fill="#24285B"/>
<path d="M370.54 65.8639C370.54 65.8639 382.71 69.197 382.795 80.0314C382.881 90.8659 377.402 109.83 385.225 111.378C393.048 112.925 397.729 89.5096 397.729 89.5096L403.308 91.9309C403.308 91.9309 397.373 131.928 376.86 125.331C356.347 118.733 370.54 65.8639 370.54 65.8639Z" fill="#68E1FD"/>
<path opacity="0.44" d="M370.54 65.8639C370.54 65.8639 382.71 69.197 382.795 80.0314C382.881 90.8659 377.402 109.83 385.225 111.378C393.048 112.925 397.729 89.5096 397.729 89.5096L403.308 91.9309C403.308 91.9309 397.373 131.928 376.86 125.331C356.347 118.733 370.54 65.8639 370.54 65.8639Z" fill="white"/>
<path d="M359.596 48.0722L355.891 62.1247L363.237 63.7645L362.988 52.8841L359.596 48.0722Z" fill="#F4A28C"/>
<path opacity="0.31" d="M363.137 55.2593C362.24 54.8999 361.46 54.266 360.893 53.4357C360.893 53.4357 360.708 56.1022 363.13 59.0751L363.137 55.2593Z" fill="#CE8172"/>
<path d="M355.891 62.1247L360.238 63.0978C360.238 63.0978 380.188 65.3965 380.993 77.5105C381.798 89.6246 370.533 120.549 370.533 120.549H340.33C340.33 120.549 316.12 58.9219 355.891 62.1247Z" fill="#68E1FD"/>
<path opacity="0.09" d="M353.283 73.3576C353.283 73.3576 355.72 80.9126 349.329 85.8471C342.938 90.7816 346.059 109.37 353.048 112.343C360.038 115.316 348.681 121.76 343.85 119.132C339.019 116.504 338.314 114.734 338.314 114.734C338.314 114.734 333.818 100.758 333.326 91.839C332.835 82.9201 353.283 73.3576 353.283 73.3576Z" fill="black"/>
<path d="M353.284 73.3576C353.284 66.6991 347.014 62.1554 341.128 64.2319C336.013 66.0172 329.771 69.3656 325.981 75.48C318.699 87.2339 302.048 121.63 344.313 122.917L345.553 117.86C345.553 117.86 320.181 110.313 331.381 94.3522C340.095 81.9317 353.305 82.7669 353.284 73.3576Z" fill="#68E1FD"/>
<path opacity="0.44" d="M353.284 73.3576C353.284 66.6991 347.014 62.1554 341.128 64.2319C336.013 66.0172 329.771 69.3656 325.981 75.48C318.699 87.2339 302.048 121.63 344.313 122.917L345.553 117.86C345.553 117.86 320.181 110.313 331.381 94.3522C340.095 81.9317 353.305 82.7669 353.284 73.3576Z" fill="white"/>
<path d="M399.033 90.0766C399.033 90.0766 399.354 84.284 401.513 82.6443C403.672 81.0045 403.308 85.1575 403.308 85.1575C403.308 85.1575 405.446 82.445 407.27 83.7093C409.094 84.9736 403.308 91.9309 403.308 91.9309L399.033 90.0766Z" fill="#F4A28C"/>
<path d="M367.206 48.4783C367.206 48.4783 366.835 52.9224 365.674 55.6961C365.562 55.9655 365.401 56.2083 365.2 56.4104C365 56.6124 364.765 56.7697 364.508 56.873C364.25 56.9764 363.977 57.0238 363.702 57.0125C363.428 57.0012 363.158 56.9314 362.909 56.8071C362.083 56.4657 361.367 55.8746 360.846 55.1051C360.325 54.3357 360.022 53.4206 359.974 52.4703L359.383 48.4016C359.345 47.5736 359.548 46.7536 359.963 46.0549C360.377 45.3562 360.984 44.8134 361.698 44.5015C364.292 43.1607 367.555 45.7735 367.206 48.4783Z" fill="#F4A28C"/>
<path d="M366.842 51.2673L367.697 53.1752C367.745 53.2833 367.767 53.4026 367.761 53.5221C367.754 53.6416 367.72 53.7575 367.661 53.859C367.602 53.9606 367.521 54.0445 367.424 54.1031C367.327 54.1617 367.217 54.1931 367.106 54.1943H365.496L366.842 51.2673Z" fill="#F4A28C"/>
<path d="M370.54 120.549L383.173 177.158L376.86 178.154C376.86 178.154 364.227 139.353 355.891 131.414L370.54 120.549Z" fill="#24285B"/>
<path d="M345.382 118.565C345.382 118.565 349.892 117.799 351.395 121.147C352.899 124.495 344.313 122.925 344.313 122.925L345.382 118.565Z" fill="#F4A28C"/>
<path d="M358.364 52.7385L360.893 52.0795L362.432 51.2673C362.432 51.2673 363.536 51.1907 363.145 48.302C363.145 48.302 368.574 50.3172 369.286 46.8539C370.07 43.0764 366.016 41.3983 363.145 41.7202C362.308 41.8285 361.515 42.1816 360.851 42.7408C360.188 43.3001 359.68 44.0443 359.383 44.8923C359.383 44.8923 354.865 44.1184 358.364 52.7385Z" fill="#24285B"/>
<path d="M362.247 51.4052C362.247 51.4052 362.496 49.7119 361.292 49.6199C360.088 49.528 359.717 51.9722 361.292 52.5009L362.247 51.4052Z" fill="#F4A28C"/>
<path opacity="0.08" d="M407.319 87.2416C418.09 87.2416 426.821 77.8523 426.821 66.27C426.821 54.6877 418.09 45.2984 407.319 45.2984C396.549 45.2984 387.818 54.6877 387.818 66.27C387.818 77.8523 396.549 87.2416 407.319 87.2416Z" fill="black"/>
<path d="M407.319 87.2416C418.09 87.2416 426.821 77.8523 426.821 66.27C426.821 54.6877 418.09 45.2984 407.319 45.2984C396.549 45.2984 387.818 54.6877 387.818 66.27C387.818 77.8523 396.549 87.2416 407.319 87.2416Z" fill="#FFD200"/>
<g opacity="0.08">
<path opacity="0.08" d="M408.274 80.9279C419.044 80.9279 427.775 71.5386 427.775 59.9563C427.775 48.374 419.044 38.9847 408.274 38.9847C397.504 38.9847 388.773 48.374 388.773 59.9563C388.773 71.5386 397.504 80.9279 408.274 80.9279Z" fill="black"/>
</g>
<path opacity="0.08" d="M407.319 87.2416C418.09 87.2416 426.821 77.8523 426.821 66.27C426.821 54.6877 418.09 45.2984 407.319 45.2984C396.549 45.2984 387.818 54.6877 387.818 66.27C387.818 77.8523 396.549 87.2416 407.319 87.2416Z" fill="black"/>
<path d="M408.274 80.9279C419.044 80.9279 427.775 71.5386 427.775 59.9563C427.775 48.374 419.044 38.9847 408.274 38.9847C397.504 38.9847 388.773 48.374 388.773 59.9563C388.773 71.5386 397.504 80.9279 408.274 80.9279Z" fill="#FFD200"/>
<path d="M408.901 50.5701C409.45 50.5701 409.614 50.7769 409.614 51.3363V52.6695C410.582 52.7781 411.504 53.1687 412.282 53.7992C413.059 54.4297 413.661 55.2763 414.024 56.2478C414.316 56.8684 414.195 57.2056 413.547 57.5121L412.371 58.0791C411.815 58.3626 411.552 58.24 411.245 57.6193C410.999 56.978 410.568 56.4389 410.015 56.0815C409.462 55.7241 408.817 55.5675 408.175 55.6348C406.137 55.6348 405.196 56.2784 405.196 57.7496C405.244 58.1993 405.436 58.617 405.739 58.9315C406.042 59.2459 406.437 59.4375 406.856 59.4736C407.424 59.6107 408.001 59.7054 408.581 59.7571C409.669 59.8157 410.744 60.0428 411.773 60.4314C412.291 60.607 412.774 60.885 413.198 61.2512C413.624 61.7319 413.957 62.2996 414.176 62.9207C414.395 63.5419 414.496 64.204 414.473 64.8678C414.473 67.6799 412.72 69.5878 409.628 70.0782V71.4191C409.628 72.0091 409.457 72.1853 408.916 72.1853H407.597C407.042 72.1853 406.885 71.9784 406.885 71.4191V70.0705C405.811 69.9914 404.782 69.5723 403.929 68.8661C403.076 68.1598 402.436 67.1979 402.09 66.1015C402.039 65.9856 402.013 65.8587 402.014 65.7305C402.016 65.6024 402.044 65.4762 402.098 65.3617C402.152 65.2471 402.229 65.1473 402.324 65.0697C402.418 64.9921 402.529 64.9388 402.646 64.9138L403.821 64.4464C404.42 64.2165 404.683 64.3698 404.947 65.0134C405.474 66.459 406.552 67.1818 408.182 67.1818C410.39 67.1818 411.495 66.4156 411.495 64.8832C411.515 64.5301 411.425 64.1799 411.237 63.8893C411.05 63.5987 410.776 63.3846 410.462 63.2817C409.697 62.9951 408.898 62.8299 408.089 62.7914C406.988 62.7141 405.904 62.4557 404.876 62.0251C404.357 61.832 403.875 61.5414 403.451 61.167C403.022 60.7111 402.686 60.1645 402.464 59.5618C402.242 58.959 402.139 58.3132 402.161 57.6653C402.161 54.8763 403.793 53.022 406.856 52.5852V51.3746C406.856 50.7769 407.049 50.6084 407.569 50.6084L408.901 50.5701Z" fill="white"/>
</svg>
