<svg width="348" height="454" viewBox="0 0 348 454" fill="none" xmlns="http://www.w3.org/2000/svg">
<path d="M60.7937 72.7206C28.0025 67.6657 14.7307 41.0446 3.79367 9.72058C2.61857 6.35506 1.64481 3.12712 0.852478 0L348 0V453.557C343.096 451.227 338.027 448.292 332.794 444.721C313.217 431.36 299.051 425.695 286.294 405.721C270.363 380.776 279.376 342.161 290.625 312.61C280.602 328.249 267.165 341.994 251.294 340.721C217.807 338.033 211.957 302.577 201.294 270.721C184.612 220.885 221.794 137.721 221.794 137.721C221.794 137.721 183.239 212.804 144.294 204.221C112.564 197.227 100.861 169.542 94.2937 137.721C86.3923 99.4375 127.294 43.2206 127.294 43.2206C127.294 43.2206 88.8725 77.049 60.7937 72.7206Z" fill="#E543FF"/>
</svg>
