<svg width="343" height="278" viewBox="0 0 343 278" fill="none" xmlns="http://www.w3.org/2000/svg">
<path d="M86.2206 226.113C79.2271 257.843 51.5415 269.545 19.7206 276.113C12.7432 277.553 5.17018 277.372 -2.54968 276.113L-2.54968 -1H342.358C341.313 10.6773 336.318 23.55 326.721 37.6131C313.36 57.1894 307.695 71.3562 287.721 84.1131C262.776 100.044 224.161 91.031 194.61 79.7818C210.249 89.8046 223.994 103.242 222.721 119.113C220.033 152.6 184.577 158.45 152.721 169.113C102.885 185.795 19.7206 148.613 19.7206 148.613C19.7206 148.613 94.8044 187.168 86.2206 226.113Z" fill="#E543FF"/>
</svg>
